<svg xmlns="http://www.w3.org/2000/svg" viewBox="0 0 246.98 42.33"><defs><style>.cls-1,.cls-3{fill:#d80305;}.cls-2{fill:#1d509d;}.cls-3{fill-rule:evenodd;}</style></defs><title>资源 1</title><g id="图层_2" data-name="图层 2"><g id="图层_1-2" data-name="图层 1"><path class="cls-1" d="M116.9,11.78a14.49,14.49,0,0,0-.69-1.84,15.83,15.83,0,0,0-6.83-7.49,18.31,18.31,0,0,0-9-2.22h-12L87,7.39H99a12.52,12.52,0,0,1,4.14.67,11,11,0,0,1,3.36,1.88,10.52,10.52,0,0,1,3.66,6.11,12.07,12.07,0,0,1,.25,2.51,12.86,12.86,0,0,1-.27,2.72,15.73,15.73,0,0,1-.88,2.91,8.69,8.69,0,0,0,.18,1.37,8.18,8.18,0,0,0,2.84,4.75,8.9,8.9,0,0,0,.79.58,24.72,24.72,0,0,0,4.24-9.61A19.19,19.19,0,0,0,116.9,11.78ZM98.13,34.41a14.91,14.91,0,0,1-4.63.75h-12l-1.41,7.16h12A23.66,23.66,0,0,0,102.19,40,17.54,17.54,0,0,1,98.13,34.41Z"/><path class="cls-2" d="M117.79,35.14a12.52,12.52,0,0,1-4.14-.68,10.81,10.81,0,0,1-3.36-1.87,10.62,10.62,0,0,1-3.65-6.11,11.43,11.43,0,0,1-.26-2.51,13.39,13.39,0,0,1,.27-2.71,15.18,15.18,0,0,1,.88-2.9,9,9,0,0,0-.18-1.39,8.22,8.22,0,0,0-2.82-4.75,7.5,7.5,0,0,0-.81-.58,24.83,24.83,0,0,0-4.24,9.62,19.16,19.16,0,0,0,.4,9.49,14.49,14.49,0,0,0,.69,1.84,15.65,15.65,0,0,0,3.81,5.31,16,16,0,0,0,3,2.17,18.31,18.31,0,0,0,9,2.23h15.52l1.42-7.16ZM124.7.2a23.66,23.66,0,0,0-10.11,2.35,17.72,17.72,0,0,1,4.07,5.57,14.85,14.85,0,0,1,4.62-.75H138.8L140.22.2Z"/><path class="cls-2" d="M185.76,27.35c-.69,3.88-1.73,8.59-7.52,8.59-5.59,0-5.22-4.71-4.54-8.59.65-3.67,2-8.54,7.56-8.54,5.8,0,5.15,4.87,4.5,8.54m6.71-11q-2.83-4-9.85-4c-4.52,0-8.85,1.2-11.79,3.89s-4.3,6.59-5.27,11.39q-1.38,6.88,1.62,10.82t9.43,3.94c4.48,0,8.71-1,11.76-3.6s4.57-6.47,5.51-11.16.5-8.55-1.41-11.24"/><path class="cls-2" d="M167,12.51c-8.95-.95-14.82,1.68-16.88,2.81.25-1.43.22-1.53.49-3.07H142l-5.29,30.08h8.59c.37-2.06.78-4.42,1.21-6.87,0-.06.88-4.52,1.21-5.39,1.24-3.07,5.62-10.8,17.83-9.55Z"/><path class="cls-2" d="M219.66,19.63l1.1-6.21c-.9-.28-8.73-2.54-16.47.12,0,0-6.67,1.89-6.67,8a8.48,8.48,0,0,0,.21,2.15,6.9,6.9,0,0,0,2.82,3.8,6.06,6.06,0,0,0,1.06.63,12.22,12.22,0,0,0,1.77.76A34.62,34.62,0,0,0,207.32,30a4.65,4.65,0,0,1,2.53,1.29A2.05,2.05,0,0,1,210,33.6a2.55,2.55,0,0,1-1.16,1c-1.65.77-5,2-13.19,0l-1.15,6.54a35.32,35.32,0,0,0,8.71,1.19h0a26.72,26.72,0,0,0,8.87-1.13,10.74,10.74,0,0,0,4.49-3.2,7.81,7.81,0,0,0,1.77-4.48s0-.12,0-.35V33a7,7,0,0,0-1-3.88A8.26,8.26,0,0,0,216,27.46a14.35,14.35,0,0,0-4.52-2.14l-.29-.09h0c-4-1.17-4.78-1.76-4.78-1.76h0a2.1,2.1,0,0,1-1-2.21,2.46,2.46,0,0,1,1.36-1.69,7.3,7.3,0,0,1,2.17-.71,24,24,0,0,1,5.48-.13l.45,0H215a28.12,28.12,0,0,1,4.63.86"/><path class="cls-2" d="M245.89,19.63,247,13.42c-.9-.28-8.73-2.54-16.46.12,0,0-6.68,1.89-6.68,8a8.48,8.48,0,0,0,.21,2.15,6.9,6.9,0,0,0,2.82,3.8,6.06,6.06,0,0,0,1.06.63,12.22,12.22,0,0,0,1.77.76A34.62,34.62,0,0,0,233.54,30a4.62,4.62,0,0,1,2.53,1.29,2.07,2.07,0,0,1,.2,2.36,2.65,2.65,0,0,1-1.17,1c-1.65.77-5,2-13.19,0l-1.15,6.54a35.32,35.32,0,0,0,8.71,1.19h0a26.72,26.72,0,0,0,8.87-1.13,10.74,10.74,0,0,0,4.49-3.2,7.81,7.81,0,0,0,1.77-4.48s0-.12,0-.35V33a7,7,0,0,0-1-3.88,7.94,7.94,0,0,0-1.39-1.64,14.35,14.35,0,0,0-4.52-2.14l-.29-.09h0c-4-1.17-4.78-1.76-4.78-1.76h0a2.11,2.11,0,0,1-1-2.21A2.46,2.46,0,0,1,233,19.56a7.3,7.3,0,0,1,2.17-.71,24,24,0,0,1,5.48-.13l.45,0h.19a28.42,28.42,0,0,1,4.64.86"/><path class="cls-3" d="M78.62,24.42c0-6.22-3.43-12.8-12.89-12.88-9.29,0-15.58,5.43-16.68,15.3-.63,9.49,5.89,15,13.41,15.23v0H75.56l1.41-7H62.38c-3.44-1-5.24-3.36-5.46-5.85H78.16A45.42,45.42,0,0,0,78.62,24.42ZM58.15,23A7.54,7.54,0,0,1,65,18.16c2.44-.07,3.5.48,4.53,1.43a6.88,6.88,0,0,1,2,3.45Z"/><polygon class="cls-3" points="51.63 0 42.13 0 37.64 25.74 31.82 11.5 22.33 11.5 22.33 11.5 12.47 25.03 16.84 0 7.34 0 0 42.07 0.06 42.07 9.49 42.07 9.5 42.07 9.51 42.05 25.8 20.01 34.79 42.05 34.79 42.07 34.8 42.07 44.29 42.07 44.3 42.07 44.3 42.04 51.63 0"/></g></g></svg>