<?xml version="1.0" encoding="utf-8"?>
<!-- Generator: Adobe Illustrator 24.0.0, SVG Export Plug-In . SVG Version: 6.00 Build 0)  -->
<svg version="1.1" id="图层_1" xmlns="http://www.w3.org/2000/svg" xmlns:xlink="http://www.w3.org/1999/xlink" x="0px" y="0px"
	 viewBox="0 0 300 60" style="enable-background:new 0 0 300 60;" xml:space="preserve">
<style type="text/css">
	.st0{fill:#D80305;}
	.st1{fill:#1D509D;}
	.st2{fill-rule:evenodd;clip-rule:evenodd;fill:#D80305;}
</style>
<g>
	<path class="st0" d="M142.5,18.4c-0.2-0.8-0.5-1.5-0.8-2.2c-1.1-2.5-2.6-4.6-4.6-6.4c-1.1-1-2.3-1.9-3.6-2.6
		c-3.1-1.7-6.7-2.7-10.8-2.7h-14.4l-1.7,8.6h14.4c1.8,0,3.5,0.3,5,0.8c1.5,0.5,2.9,1.3,4,2.3c2.2,1.8,3.8,4.4,4.4,7.4
		c0.2,1,0.3,2,0.3,3c0,1.1-0.1,2.2-0.3,3.3c-0.2,1.2-0.6,2.4-1.1,3.5c0,0.6,0.1,1.1,0.2,1.6c0.5,2.3,1.7,4.3,3.4,5.7
		c0.3,0.3,0.6,0.5,1,0.7c2.5-3.5,4.3-7.4,5.1-11.6C143.8,25.7,143.5,21.8,142.5,18.4z M119.9,45.6c-1.8,0.6-3.7,0.9-5.6,0.9H99.9
		l-1.7,8.6h14.4c4.2,0,8.3-1,12.2-2.8C122.7,50.4,121.1,48.2,119.9,45.6z"/>
	<path class="st1" d="M143.5,46.5c-1.8,0-3.5-0.3-5-0.8c-1.5-0.5-2.9-1.3-4-2.3c-2.2-1.8-3.8-4.4-4.4-7.4c-0.2-1-0.3-2-0.3-3
		c0-1.1,0.1-2.2,0.3-3.3c0.2-1.2,0.6-2.4,1.1-3.5c0-0.6-0.1-1.1-0.2-1.7c-0.5-2.3-1.7-4.3-3.4-5.7c-0.3-0.3-0.6-0.5-1-0.7
		c-2.5,3.5-4.3,7.4-5.1,11.6c-0.8,4.1-0.6,8,0.5,11.4c0.2,0.8,0.5,1.5,0.8,2.2c1.1,2.4,2.6,4.6,4.6,6.4c1.1,1,2.3,1.9,3.6,2.6
		c3.1,1.7,6.7,2.7,10.8,2.7h18.7l1.7-8.6H143.5z M151.9,4.4c-4.2,0-8.3,1-12.2,2.8c2,1.9,3.7,4.1,4.9,6.7c1.8-0.6,3.7-0.9,5.6-0.9
		h18.7l1.7-8.6H151.9z"/>
	<path class="st1" d="M225.3,37.1c-0.8,4.7-2.1,10.3-9,10.3c-6.7,0-6.3-5.7-5.5-10.3c0.8-4.4,2.4-10.3,9.1-10.3
		C226.9,26.8,226.1,32.7,225.3,37.1 M233.4,23.9c-2.3-3.2-6.2-4.9-11.9-4.9c-5.4,0-10.7,1.4-14.2,4.7c-3.5,3.2-5.2,7.9-6.3,13.7
		c-1.1,5.5-0.5,9.9,1.9,13c2.4,3.2,6.2,4.7,11.4,4.7c5.4,0,10.5-1.2,14.1-4.3c3.7-3.1,5.5-7.8,6.6-13.4
		C236.3,31.6,235.7,27.1,233.4,23.9"/>
	<path class="st1" d="M202.7,19.3c-10.8-1.1-17.8,2-20.3,3.4c0.3-1.7,0.3-1.8,0.6-3.7h-10.3l-6.4,36.2h10.3c0.4-2.5,0.9-5.3,1.5-8.3
		c0-0.1,1.1-5.4,1.4-6.5c1.5-3.7,6.8-13,21.5-11.5L202.7,19.3z"/>
	<path class="st1" d="M266.1,27.8l1.3-7.5c-1.1-0.3-10.5-3.1-19.8,0.1c0,0-8,2.3-8,9.6c0,0-0.1,1.1,0.3,2.6c0.3,0.9,1,2.9,3.4,4.6
		c0,0,0.3,0.3,1.3,0.8c0.6,0.3,1.3,0.6,2.1,0.9c1.2,0.5,2.4,0.8,4.6,1.3c0.3,0.1,1.9,0.3,3,1.6c0.3,0.3,1,1.4,0.2,2.8
		c-0.2,0.4-0.7,0.8-1.4,1.2c-2,0.9-6,2.4-15.9,0l-1.4,7.9c0.6,0.2,4.7,1.3,10.5,1.4l0,0c0,0,5.7,0.3,10.7-1.4
		c1.3-0.5,3.5-1.6,5.4-3.9c1.1-1.4,2-3.2,2.1-5.4c0,0,0-0.2,0-0.4c0-0.1,0-0.1,0-0.2c0-1.9-0.4-3.5-1.2-4.7c-0.5-0.8-1.1-1.4-1.7-2
		c-1.6-1.4-4.4-2.3-5.4-2.6c-0.1,0-0.2-0.1-0.3-0.1c0,0,0,0,0,0h0c-4.8-1.4-5.8-2.1-5.8-2.1h0c-1.3-0.8-1.3-1.9-1.2-2.7
		c0.1-0.4,0.4-1.4,1.6-2c0.6-0.3,1.4-0.6,2.6-0.8c1.5-0.2,3.6-0.4,6.6-0.2c0.2,0,0.4,0,0.5,0c0.1,0,0.1,0,0.2,0l0,0
		C262,26.9,264.4,27.3,266.1,27.8"/>
	<path class="st1" d="M297.7,27.8l1.3-7.5c-1.1-0.3-10.5-3.1-19.8,0.1c0,0-8,2.3-8,9.6c0,0-0.1,1.1,0.3,2.6c0.3,0.9,1,2.9,3.4,4.6
		c0,0,0.3,0.3,1.3,0.8c0.6,0.3,1.3,0.6,2.1,0.9c1.2,0.5,2.4,0.8,4.6,1.3c0.3,0.1,1.9,0.3,3,1.6c0.3,0.3,1,1.4,0.2,2.8
		c-0.2,0.4-0.7,0.8-1.4,1.2c-2,0.9-6,2.4-15.9,0l-1.4,7.9c0.6,0.2,4.7,1.3,10.5,1.4l0,0c0,0,5.7,0.3,10.7-1.4
		c1.3-0.5,3.5-1.6,5.4-3.9c1.1-1.4,2-3.2,2.1-5.4c0,0,0-0.2,0-0.4c0-0.1,0-0.1,0-0.2c0-1.9-0.4-3.5-1.2-4.7c-0.5-0.8-1.1-1.4-1.7-2
		c-1.6-1.4-4.4-2.3-5.4-2.6c-0.1,0-0.2-0.1-0.3-0.1c0,0,0,0,0,0h0c-4.8-1.4-5.8-2.1-5.8-2.1h0c-1.3-0.8-1.3-1.9-1.2-2.7
		c0.1-0.4,0.4-1.4,1.6-2c0.6-0.3,1.4-0.6,2.6-0.8c1.5-0.2,3.6-0.4,6.6-0.2c0.2,0,0.4,0,0.5,0c0.1,0,0.1,0,0.2,0l0,0
		C293.5,26.9,296,27.3,297.7,27.8"/>
	<g>
		<path class="st2" d="M96.4,33.6c0-7.5-4.1-15.4-15.5-15.5c-11.2,0-18.8,6.5-20.1,18.4C60.1,47.9,67.9,54.6,77,54.8l0,0h15.8
			l1.7-8.4H76.9c-4.1-1.2-6.3-4-6.6-7h25.5C95.8,39.4,96.4,35.7,96.4,33.6z M71.8,31.9c1.1-3.4,4.7-5.8,8.2-5.9
			c2.9-0.1,4.2,0.6,5.5,1.7c1.9,1.8,2.4,4.2,2.4,4.2H71.8z"/>
		<polygon class="st2" points="63.9,4.2 52.5,4.2 47.1,35.2 40.1,18 28.7,18 28.7,18 16.8,34.3 22.1,4.2 10.6,4.2 1.8,54.8 
			1.9,54.8 13.2,54.8 13.2,54.8 13.2,54.8 32.9,28.3 43.7,54.8 43.7,54.8 43.7,54.8 55.1,54.8 55.1,54.8 55.1,54.8 		"/>
	</g>
</g>
</svg>
